<?xml version="1.0" encoding="UTF-8" standalone="no"?>
<!-- Created with Inkscape (http://www.inkscape.org/) -->

<svg
   xmlns:dc="http://purl.org/dc/elements/1.1/"
   xmlns:cc="http://creativecommons.org/ns#"
   xmlns:rdf="http://www.w3.org/1999/02/22-rdf-syntax-ns#"
   xmlns:svg="http://www.w3.org/2000/svg"
   xmlns="http://www.w3.org/2000/svg"
   xmlns:sodipodi="http://sodipodi.sourceforge.net/DTD/sodipodi-0.dtd"
   xmlns:inkscape="http://www.inkscape.org/namespaces/inkscape"
   width="300"
   height="200"
   id="svg2"
   version="1.1"
   inkscape:version="0.48.4 r9939"
   sodipodi:docname="curl.svg"
   inkscape:export-filename="/home/denis/projects/SportsTimer/experimental/FirefoxOS.SportsTimer/app/images/gym-curl.png"
   inkscape:export-xdpi="90"
   inkscape:export-ydpi="90">
  <defs
     id="defs4">
    <inkscape:path-effect
       effect="skeletal"
       id="path-effect4770"
       is_visible="true"
       pattern="M 0,5 C 0,2.24 2.24,0 5,0 7.76,0 10,2.24 10,5 10,7.76 7.76,10 5,10 2.24,10 0,7.76 0,5 z"
       copytype="single_stretched"
       prop_scale="1"
       scale_y_rel="false"
       spacing="0"
       normal_offset="0"
       tang_offset="0"
       prop_units="false"
       vertical_pattern="false"
       fuse_tolerance="0" />
    <inkscape:path-effect
       effect="skeletal"
       id="path-effect4616"
       is_visible="true"
       pattern="m 637.50576,-46.294372 c 0,-2.76 2.24,-5 5,-5 2.76,0 5,2.24 5,5 0,2.76 -2.24,5 -5,5 -2.76,0 -5,-2.24 -5,-5 z"
       copytype="single_stretched"
       prop_scale="1"
       scale_y_rel="false"
       spacing="0"
       normal_offset="0"
       tang_offset="0"
       prop_units="false"
       vertical_pattern="false"
       fuse_tolerance="0" />
    <inkscape:path-effect
       effect="spiro"
       id="path-effect4592"
       is_visible="true" />
    <inkscape:path-effect
       effect="spiro"
       id="path-effect4588"
       is_visible="true" />
    <inkscape:path-effect
       effect="spiro"
       id="path-effect4574"
       is_visible="true" />
    <inkscape:path-effect
       effect="spiro"
       id="path-effect4570"
       is_visible="true" />
    <inkscape:path-effect
       effect="spiro"
       id="path-effect4477"
       is_visible="true" />
    <inkscape:path-effect
       effect="spiro"
       id="path-effect4452"
       is_visible="true" />
    <inkscape:path-effect
       effect="spiro"
       id="path-effect4427"
       is_visible="true" />
    <inkscape:path-effect
       effect="spiro"
       id="path-effect4421"
       is_visible="true" />
    <inkscape:path-effect
       effect="spiro"
       id="path-effect4417"
       is_visible="true" />
    <marker
       inkscape:stockid="DiamondSend"
       orient="auto"
       refY="0"
       refX="0"
       id="DiamondSend"
       style="overflow:visible">
      <path
         id="path4076"
         d="M 0,-7.0710768 -7.0710894,0 0,7.0710589 7.0710462,0 0,-7.0710768 z"
         style="fill-rule:evenodd;stroke:#000000;stroke-width:1pt"
         transform="matrix(0.2,0,0,0.2,-1.2,0)"
         inkscape:connector-curvature="0" />
    </marker>
    <inkscape:path-effect
       effect="spiro"
       id="path-effect4427-8"
       is_visible="true" />
    <inkscape:path-effect
       effect="spiro"
       id="path-effect4477-5"
       is_visible="true" />
    <inkscape:path-effect
       effect="spiro"
       id="path-effect4477-6"
       is_visible="true" />
    <inkscape:path-effect
       effect="skeletal"
       id="path-effect4616-5"
       is_visible="true"
       pattern="m 1054.9513,-45.083147 c 0,-2.76 2.24,-5 5,-5 2.76,0 5,2.24 5,5 0,2.76 -2.24,5 -5,5 -2.76,0 -5,-2.24 -5,-5 z"
       copytype="single_stretched"
       prop_scale="1"
       scale_y_rel="false"
       spacing="0"
       normal_offset="0"
       tang_offset="0"
       prop_units="false"
       vertical_pattern="false"
       fuse_tolerance="0" />
    <inkscape:path-effect
       effect="spiro"
       id="path-effect4477-6-4"
       is_visible="true" />
    <inkscape:path-effect
       effect="spiro"
       id="path-effect4477-7"
       is_visible="true" />
    <inkscape:path-effect
       effect="spiro"
       id="path-effect4427-8-1"
       is_visible="true" />
    <inkscape:path-effect
       effect="spiro"
       id="path-effect4427-1"
       is_visible="true" />
    <inkscape:path-effect
       effect="skeletal"
       id="path-effect4616-4"
       is_visible="true"
       pattern="m 770.6432,-48.788213 c 0,-2.76 2.24,-5 5,-5 2.76,0 5,2.24 5,5 0,2.76 -2.24,5 -5,5 -2.76,0 -5,-2.24 -5,-5 z"
       copytype="single_stretched"
       prop_scale="1"
       scale_y_rel="false"
       spacing="0"
       normal_offset="0"
       tang_offset="0"
       prop_units="false"
       vertical_pattern="false"
       fuse_tolerance="0" />
    <inkscape:path-effect
       effect="spiro"
       id="path-effect4427-8-0"
       is_visible="true" />
    <inkscape:path-effect
       effect="spiro"
       id="path-effect4427-8-0-0"
       is_visible="true" />
  </defs>
  <sodipodi:namedview
     id="base"
     pagecolor="#ffffff"
     bordercolor="#666666"
     borderopacity="1.0"
     inkscape:pageopacity="0.0"
     inkscape:pageshadow="2"
     inkscape:zoom="1"
     inkscape:cx="-24.31741"
     inkscape:cy="187.5"
     inkscape:document-units="px"
     inkscape:current-layer="layer1"
     showgrid="true"
     inkscape:object-paths="true"
     inkscape:snap-nodes="true"
     inkscape:snap-bbox="false"
     inkscape:snap-grids="true"
     inkscape:snap-to-guides="false"
     inkscape:snap-global="false"
     inkscape:window-width="1366"
     inkscape:window-height="713"
     inkscape:window-x="-2"
     inkscape:window-y="-3"
     inkscape:window-maximized="1"
     width="300px">
    <inkscape:grid
       type="xygrid"
       id="grid3759"
       empspacing="5"
       visible="true"
       enabled="true"
       snapvisiblegridlinesonly="true" />
  </sodipodi:namedview>
  <metadata
     id="metadata7">
    <rdf:RDF>
      <cc:Work
         rdf:about="">
        <dc:format>image/svg+xml</dc:format>
        <dc:type
           rdf:resource="http://purl.org/dc/dcmitype/StillImage" />
        <dc:title></dc:title>
      </cc:Work>
    </rdf:RDF>
  </metadata>
  <g
     inkscape:label="Calque 1"
     inkscape:groupmode="layer"
     id="layer1"
     transform="translate(0,-852.36218)">
    <path
       sodipodi:type="arc"
       style="opacity:0.93999999;fill:#000000;fill-opacity:1;stroke:#000000;stroke-width:25;stroke-linecap:round;stroke-linejoin:round;stroke-miterlimit:4;stroke-opacity:1;stroke-dasharray:none"
       id="path3767"
       sodipodi:cx="344.28571"
       sodipodi:cy="330.93362"
       sodipodi:rx="92.85714"
       sodipodi:ry="95.714287"
       d="m 437.14285,330.93362 c 0,52.86155 -41.57356,95.71429 -92.85714,95.71429 -51.28359,0 -92.85714,-42.85274 -92.85714,-95.71429 0,-52.86154 41.57355,-95.71428 92.85714,-95.71428 51.28358,0 92.85714,42.85274 92.85714,95.71428 z"
       transform="matrix(0.22240932,0,0,0.15632202,-0.3556856,843.26717)" />
    <path
       style="fill:#ec8c19;fill-opacity:1;stroke:#000000;stroke-width:13.22375202;stroke-linecap:round;stroke-linejoin:miter;stroke-miterlimit:4;stroke-opacity:1;stroke-dasharray:none"
       d="M 54.579975,920.82211 38.591294,973.64585"
       id="path4425"
       inkscape:path-effect="#path-effect4427"
       inkscape:original-d="M 54.579975,920.82211 C 23.384512,975.76722 38.180302,973.55744 38.591294,973.64585"
       inkscape:connector-curvature="0"
       sodipodi:nodetypes="cc" />
    <path
       style="fill:#000000;fill-opacity:1;stroke:#000000;stroke-width:13.38288403;stroke-linecap:round;stroke-linejoin:miter;stroke-miterlimit:4;stroke-opacity:1;stroke-dasharray:none"
       d="m 95.25311,920.90168 12.63345,54.4373"
       id="path4425-1"
       inkscape:path-effect="#path-effect4427-8"
       inkscape:original-d="m 95.25311,920.90168 c 11.0832,62.9778 5.60331,56.49957 12.63345,54.4373"
       inkscape:connector-curvature="0"
       sodipodi:nodetypes="cc" />
    <path
       style="fill:none;stroke:#000000;stroke-width:16.70178986000000165;stroke-linecap:round;stroke-linejoin:miter;stroke-miterlimit:4;stroke-opacity:1;stroke-dasharray:none"
       d="m 59.555635,978.86475 c 0.867298,18.47337 0.659738,36.99715 -0.621282,55.44645 -0.01321,0.1902 -0.02653,0.3805 -0.03997,0.5707"
       id="path4475"
       inkscape:path-effect="#path-effect4477"
       inkscape:original-d="m 59.555635,978.86475 -0.621282,55.44645 -0.03997,0.5707"
       inkscape:connector-curvature="0" />
    <path
       style="fill:#e67310;fill-opacity:1;stroke:#000000;stroke-width:16.66427231;stroke-linecap:round;stroke-linejoin:miter;stroke-miterlimit:4;stroke-opacity:1;stroke-dasharray:none"
       d="m 85.88908,981.62901 -0.65654,52.23409 -0.0422,0.5376"
       id="path4475-4"
       inkscape:path-effect="#path-effect4477-6"
       inkscape:original-d="m 85.88908,981.62901 -0.65654,52.23409 -0.0422,0.5376"
       inkscape:connector-curvature="0" />
    <path
       style="fill:#ffffff;fill-opacity:1;fill-rule:evenodd;stroke:none"
       d="m 61.721747,898.02257 c 0.656506,-0.75878 1.961896,-0.8464 3.581325,-0.61639 1.61943,0.23001 3.528801,0.79319 5.421718,0.92239 1.302806,0.12935 2.766988,0.0691 4.352615,-0.151 0.04414,-0.006 0.08824,-0.0124 0.132294,-0.0187 1.870597,-0.25149 3.960085,-0.81752 6.067225,-1.15923 2.459912,-0.42407 4.733205,-0.52379 6.405677,-0.22495 1.672472,0.29883 2.726996,0.97277 2.957588,1.90436 0.230592,0.93159 -0.352013,1.98771 -1.46991,3.11378 -1.117898,1.12606 -2.774178,2.35073 -4.962552,3.55796 -1.862696,1.05148 -4.295464,2.14154 -7.432251,2.68395 -0.08406,0.014 -0.168408,0.0273 -0.25302,0.04 -3.039318,0.45517 -6.091225,-0.0252 -8.573167,-1.11249 -1.574219,-0.74574 -2.824201,-1.63581 -3.792258,-2.53517 -0.968057,-0.89937 -1.65663,-1.80822 -2.118551,-2.64105 -0.923842,-1.66567 -0.973239,-3.00467 -0.316733,-3.76345 z"
       id="path4614"
       inkscape:path-effect="#path-effect4616"
       inkscape:original-d="m 61.721747,898.02257 c 11.261968,9.74402 17.154126,3.56846 28.918442,0.65649"
       inkscape:connector-curvature="0" />
    <path
       sodipodi:type="arc"
       style="opacity:0.93999999;fill:#ffffff;fill-opacity:1;stroke:#ffffff;stroke-width:5;stroke-linecap:round;stroke-linejoin:round;stroke-miterlimit:4;stroke-opacity:1;stroke-dasharray:none"
       id="path4658"
       sodipodi:cx="120"
       sodipodi:cy="743.79077"
       sodipodi:rx="18.571428"
       sodipodi:ry="14.285714"
       d="m 138.57143,743.79077 c 0,7.88978 -8.31471,14.28572 -18.57143,14.28572 -10.25672,0 -18.57143,-6.39594 -18.57143,-14.28572 0,-7.88978 8.31471,-14.28571 18.57143,-14.28571 10.25672,0 18.57143,6.39593 18.57143,14.28571 z"
       transform="matrix(0.37229743,0,0,0.20685733,-41.319222,820.30333)" />
    <path
       style="fill:none;stroke:#000000;stroke-width:16.70988464;stroke-linecap:round;stroke-linejoin:miter;stroke-miterlimit:4;stroke-opacity:1;stroke-dasharray:none"
       d="m 191.81926,978.11117 c 0.85406,18.72106 0.64907,37.49043 -0.61367,56.18833 -0.013,0.1928 -0.0262,0.3856 -0.0394,0.5784"
       id="path4475-47"
       inkscape:path-effect="#path-effect4477-7"
       inkscape:original-d="m 191.81926,978.11117 -0.61367,56.18833 -0.0394,0.5784"
       inkscape:connector-curvature="0" />
    <path
       style="fill:none;stroke:#000000;stroke-width:16.71778679;stroke-linecap:round;stroke-linejoin:miter;stroke-miterlimit:4;stroke-opacity:1;stroke-dasharray:none"
       d="m 221.17566,977.35758 c 0.84658,18.96866 0.64409,37.98412 -0.60622,56.93042 -0.0129,0.1953 -0.0259,0.3906 -0.039,0.5859"
       id="path4475-4-6"
       inkscape:path-effect="#path-effect4477-6-4"
       inkscape:original-d="m 221.17566,977.35758 -0.60622,56.93042 -0.039,0.5859"
       inkscape:connector-curvature="0" />
    <path
       sodipodi:type="arc"
       style="opacity:0.93999999000000001;fill:#000000;fill-opacity:1;stroke:#000000;stroke-width:25;stroke-linecap:round;stroke-linejoin:round;stroke-miterlimit:4;stroke-opacity:1;stroke-dasharray:none"
       id="path3767-2"
       sodipodi:cx="344.28571"
       sodipodi:cy="330.93362"
       sodipodi:rx="92.85714"
       sodipodi:ry="95.714287"
       d="m 437.14285,330.93362 c 0,52.86155 -41.57356,95.71429 -92.85714,95.71429 -51.28359,0 -92.85714,-42.85274 -92.85714,-95.71429 0,-52.86154 41.57355,-95.71428 92.85714,-95.71428 51.28358,0 92.85714,42.85274 92.85714,95.71428 z"
       transform="matrix(0.22240932,0,0,0.15632202,132.78177,840.77333)" />
    <path
       style="fill:#ffffff;fill-opacity:1;fill-rule:evenodd;stroke:none"
       d="m 194.8592,895.52873 c 0.65651,-0.75878 1.9619,-0.8464 3.58132,-0.61639 1.61943,0.23001 3.5288,0.79319 5.42172,0.92239 1.30281,0.12936 2.76699,0.0691 4.35261,-0.151 0.0441,-0.006 0.0882,-0.0124 0.1323,-0.0187 1.87059,-0.25149 3.96008,-0.81752 6.06722,-1.15923 2.45991,-0.42407 4.73321,-0.52379 6.40568,-0.22495 1.67247,0.29883 2.727,0.97277 2.95759,1.90436 0.23059,0.93159 -0.35201,1.98771 -1.46991,3.11378 -1.1179,1.12606 -2.77418,2.35073 -4.96255,3.55796 -1.8627,1.05148 -4.29547,2.14154 -7.43226,2.68395 -0.0841,0.014 -0.1684,0.0273 -0.25301,0.04 -3.03932,0.45518 -6.09123,-0.0251 -8.57317,-1.1125 -1.57422,-0.74573 -2.8242,-1.6358 -3.79226,-2.53516 -0.96806,-0.89937 -1.65663,-1.80822 -2.11855,-2.64105 -0.92384,-1.66567 -0.97324,-3.00467 -0.31673,-3.76345 z"
       id="path4614-3"
       inkscape:path-effect="#path-effect4616-4"
       inkscape:original-d="m 194.8592,895.52873 c 11.26196,9.74402 17.15412,3.56846 28.91844,0.65649"
       inkscape:connector-curvature="0" />
    <path
       style="fill:#000000;fill-opacity:1;stroke:#000000;stroke-width:0.20598319px;stroke-linecap:butt;stroke-linejoin:miter;stroke-opacity:1"
       d="m 51.926995,914.43662 40.983428,0 0,67.44072 -42.154385,0 c 0,0 2.341914,-134.88142 1.170957,-67.44072 z"
       id="path3761"
       inkscape:connector-curvature="0" />
    <path
       sodipodi:type="arc"
       style="opacity:0.93999999;fill:#ff0000;fill-opacity:1;stroke:#ffffff;stroke-width:5;stroke-linecap:round;stroke-linejoin:round;stroke-miterlimit:4;stroke-opacity:1;stroke-dasharray:none"
       id="path4660-0"
       sodipodi:cx="109.28571"
       sodipodi:cy="836.64789"
       sodipodi:rx="39.285713"
       sodipodi:ry="34.285713"
       d="m 148.57143,836.64789 a 39.285713,34.285713 0 1 1 -78.57143,0 39.285713,34.285713 0 1 1 78.57143,0 z"
       transform="matrix(0.19043923,0,0,0.16201926,87.59138,841.52847)" />
    <path
       sodipodi:type="arc"
       style="opacity:0.93999999;fill:#ff0000;fill-opacity:1;stroke:#ffffff;stroke-width:5;stroke-linecap:round;stroke-linejoin:round;stroke-miterlimit:4;stroke-opacity:1;stroke-dasharray:none"
       id="path4660"
       sodipodi:cx="109.28571"
       sodipodi:cy="836.64789"
       sodipodi:rx="39.285713"
       sodipodi:ry="34.285713"
       d="m 148.57143,836.64789 a 39.285713,34.285713 0 1 1 -78.57143,0 39.285713,34.285713 0 1 1 78.57143,0 z"
       transform="matrix(0.18017684,0,0,0.19077161,15.759228,815.46273)" />
    <path
       style="fill:#000000;fill-opacity:1;stroke:#000000;stroke-width:0.21549712px;stroke-linecap:butt;stroke-linejoin:miter;stroke-opacity:1"
       d="m 185.20937,915.14658 44.86307,0 0,67.4312 -46.14488,0 c 0,0 2.56361,-134.86239 1.28181,-67.4312 z"
       id="path3761-7"
       inkscape:connector-curvature="0" />
    <path
       style="fill:#ff0000;fill-opacity:1;stroke:#ff0000;stroke-width:1.60000002;stroke-linecap:butt;stroke-linejoin:miter;stroke-miterlimit:4;stroke-opacity:1;stroke-dasharray:none"
       d="m 0,1042.3622 300,0"
       id="path4499"
       inkscape:connector-curvature="0" />
    <path
       style="fill:#000000;fill-opacity:1;stroke:#000000;stroke-width:13.38288403;stroke-linecap:round;stroke-linejoin:miter;stroke-miterlimit:4;stroke-opacity:1;stroke-dasharray:none"
       d="m 229.05946,922.0755 55.88107,0.57336"
       id="path4425-1-1"
       inkscape:path-effect="#path-effect4427-8-0"
       inkscape:original-d="m 229.05946,922.0755 c 63.81427,4.09576 56.22562,7.89164 55.88107,0.57336"
       inkscape:connector-curvature="0"
       sodipodi:nodetypes="cc" />
    <path
       sodipodi:type="arc"
       style="fill:#ff0000;fill-opacity:1;stroke:#ffffff;stroke-width:5;stroke-linecap:round;stroke-linejoin:round;stroke-miterlimit:4;stroke-opacity:1;stroke-dasharray:none"
       id="path4660-4-0"
       sodipodi:cx="109.28571"
       sodipodi:cy="836.64789"
       sodipodi:rx="39.285713"
       sodipodi:ry="34.285713"
       d="m 148.57143,836.64789 a 39.285713,34.285713 0 1 1 -78.57143,0 39.285713,34.285713 0 1 1 78.57143,0 z"
       transform="matrix(0.19368601,0,0,0.15837383,260.36534,788.86374)" />
    <path
       style="fill:#000000;fill-opacity:1;stroke:#000000;stroke-width:13.38288403;stroke-linecap:round;stroke-linejoin:miter;stroke-miterlimit:4;stroke-opacity:1;stroke-dasharray:none"
       d="m 135.05946,922.0755 55.88107,0.57336"
       id="path4425-1-1-4"
       inkscape:path-effect="#path-effect4427-8-0-0"
       inkscape:original-d="m 135.05946,922.0755 c 63.81427,4.09576 56.22562,7.89164 55.88107,0.57336"
       inkscape:connector-curvature="0"
       sodipodi:nodetypes="cc" />
    <path
       sodipodi:type="arc"
       style="fill:#ff0000;fill-opacity:1;stroke:#ffffff;stroke-width:5;stroke-linecap:round;stroke-linejoin:round;stroke-miterlimit:4;stroke-opacity:1;stroke-dasharray:none"
       id="path4660-7-0"
       sodipodi:cx="109.28571"
       sodipodi:cy="836.64789"
       sodipodi:rx="39.285713"
       sodipodi:ry="34.285713"
       d="m 148.57143,836.64789 a 39.285713,34.285713 0 1 1 -78.57143,0 39.285713,34.285713 0 1 1 78.57143,0 z"
       transform="matrix(0.18963749,0,0,0.18688055,115.04949,764.02381)" />
  </g>
</svg>
