<?xml version="1.0" encoding="UTF-8" standalone="no"?>
<!-- Created with Inkscape (http://www.inkscape.org/) -->

<svg
   xmlns:dc="http://purl.org/dc/elements/1.1/"
   xmlns:cc="http://creativecommons.org/ns#"
   xmlns:rdf="http://www.w3.org/1999/02/22-rdf-syntax-ns#"
   xmlns:svg="http://www.w3.org/2000/svg"
   xmlns="http://www.w3.org/2000/svg"
   xmlns:sodipodi="http://sodipodi.sourceforge.net/DTD/sodipodi-0.dtd"
   xmlns:inkscape="http://www.inkscape.org/namespaces/inkscape"
   width="300"
   height="200"
   id="svg2"
   version="1.1"
   inkscape:version="0.48.4 r9939"
   sodipodi:docname="standy-butterfly.svg"
   inkscape:export-filename="/home/denis/projects/SportsTimer/experimental/FirefoxOS.SportsTimer/app/images/gym-standing-butterfly.png"
   inkscape:export-xdpi="90"
   inkscape:export-ydpi="90">
  <defs
     id="defs4">
    <inkscape:path-effect
       effect="skeletal"
       id="path-effect4770"
       is_visible="true"
       pattern="M 0,5 C 0,2.24 2.24,0 5,0 7.76,0 10,2.24 10,5 10,7.76 7.76,10 5,10 2.24,10 0,7.76 0,5 z"
       copytype="single_stretched"
       prop_scale="1"
       scale_y_rel="false"
       spacing="0"
       normal_offset="0"
       tang_offset="0"
       prop_units="false"
       vertical_pattern="false"
       fuse_tolerance="0" />
    <inkscape:path-effect
       effect="skeletal"
       id="path-effect4616"
       is_visible="true"
       pattern="m 803.50576,-48.29437 c 0,-2.76 2.24,-5 5,-5 2.76,0 5,2.24 5,5 0,2.76 -2.24,5 -5,5 -2.76,0 -5,-2.24 -5,-5 z"
       copytype="single_stretched"
       prop_scale="1"
       scale_y_rel="false"
       spacing="0"
       normal_offset="0"
       tang_offset="0"
       prop_units="false"
       vertical_pattern="false"
       fuse_tolerance="0" />
    <inkscape:path-effect
       effect="spiro"
       id="path-effect4592"
       is_visible="true" />
    <inkscape:path-effect
       effect="spiro"
       id="path-effect4588"
       is_visible="true" />
    <inkscape:path-effect
       effect="spiro"
       id="path-effect4574"
       is_visible="true" />
    <inkscape:path-effect
       effect="spiro"
       id="path-effect4570"
       is_visible="true" />
    <inkscape:path-effect
       effect="spiro"
       id="path-effect4477"
       is_visible="true" />
    <inkscape:path-effect
       effect="spiro"
       id="path-effect4452"
       is_visible="true" />
    <inkscape:path-effect
       effect="spiro"
       id="path-effect4427"
       is_visible="true" />
    <inkscape:path-effect
       effect="spiro"
       id="path-effect4421"
       is_visible="true" />
    <inkscape:path-effect
       effect="spiro"
       id="path-effect4417"
       is_visible="true" />
    <marker
       inkscape:stockid="DiamondSend"
       orient="auto"
       refY="0"
       refX="0"
       id="DiamondSend"
       style="overflow:visible">
      <path
         id="path4076"
         d="M 0,-7.0710768 -7.0710894,0 0,7.0710589 7.0710462,0 0,-7.0710768 z"
         style="fill-rule:evenodd;stroke:#000000;stroke-width:1pt"
         transform="matrix(0.2,0,0,0.2,-1.2,0)"
         inkscape:connector-curvature="0" />
    </marker>
    <inkscape:path-effect
       effect="spiro"
       id="path-effect4427-8"
       is_visible="true" />
    <inkscape:path-effect
       effect="spiro"
       id="path-effect4477-5"
       is_visible="true" />
    <inkscape:path-effect
       effect="spiro"
       id="path-effect4477-6"
       is_visible="true" />
    <inkscape:path-effect
       effect="skeletal"
       id="path-effect4616-5"
       is_visible="true"
       pattern="m 1054.9513,-45.083147 c 0,-2.76 2.24,-5 5,-5 2.76,0 5,2.24 5,5 0,2.76 -2.24,5 -5,5 -2.76,0 -5,-2.24 -5,-5 z"
       copytype="single_stretched"
       prop_scale="1"
       scale_y_rel="false"
       spacing="0"
       normal_offset="0"
       tang_offset="0"
       prop_units="false"
       vertical_pattern="false"
       fuse_tolerance="0" />
    <inkscape:path-effect
       effect="spiro"
       id="path-effect4477-6-4"
       is_visible="true" />
    <inkscape:path-effect
       effect="spiro"
       id="path-effect4477-7"
       is_visible="true" />
    <inkscape:path-effect
       effect="spiro"
       id="path-effect4427-8-1"
       is_visible="true" />
    <inkscape:path-effect
       effect="spiro"
       id="path-effect4427-1"
       is_visible="true" />
    <inkscape:path-effect
       effect="skeletal"
       id="path-effect4616-4"
       is_visible="true"
       pattern="m 638.6432,-50.788213 c 0,-2.76 2.24,-5 5,-5 2.76,0 5,2.24 5,5 0,2.76 -2.24,5 -5,5 -2.76,0 -5,-2.24 -5,-5 z"
       copytype="single_stretched"
       prop_scale="1"
       scale_y_rel="false"
       spacing="0"
       normal_offset="0"
       tang_offset="0"
       prop_units="false"
       vertical_pattern="false"
       fuse_tolerance="0" />
    <inkscape:path-effect
       effect="spiro"
       id="path-effect4427-8-0"
       is_visible="true" />
    <inkscape:path-effect
       effect="spiro"
       id="path-effect4427-8-0-0"
       is_visible="true" />
  </defs>
  <sodipodi:namedview
     id="base"
     pagecolor="#ffffff"
     bordercolor="#666666"
     borderopacity="1.0"
     inkscape:pageopacity="0.0"
     inkscape:pageshadow="2"
     inkscape:zoom="1"
     inkscape:cx="-24.31741"
     inkscape:cy="187.5"
     inkscape:document-units="px"
     inkscape:current-layer="layer1"
     showgrid="true"
     inkscape:object-paths="true"
     inkscape:snap-nodes="true"
     inkscape:snap-bbox="false"
     inkscape:snap-grids="true"
     inkscape:snap-to-guides="false"
     inkscape:snap-global="false"
     inkscape:window-width="1366"
     inkscape:window-height="713"
     inkscape:window-x="-2"
     inkscape:window-y="-3"
     inkscape:window-maximized="1"
     width="300px"
     showguides="true"
     inkscape:guide-bbox="true">
    <inkscape:grid
       type="xygrid"
       id="grid3759"
       empspacing="5"
       visible="true"
       enabled="true"
       snapvisiblegridlinesonly="true" />
  </sodipodi:namedview>
  <metadata
     id="metadata7">
    <rdf:RDF>
      <cc:Work
         rdf:about="">
        <dc:format>image/svg+xml</dc:format>
        <dc:type
           rdf:resource="http://purl.org/dc/dcmitype/StillImage" />
        <dc:title></dc:title>
      </cc:Work>
    </rdf:RDF>
  </metadata>
  <g
     inkscape:label="Calque 1"
     inkscape:groupmode="layer"
     id="layer1"
     transform="translate(0,-852.36218)">
    <path
       sodipodi:type="arc"
       style="opacity:0.93999999;fill:#000000;fill-opacity:1;stroke:#000000;stroke-width:25;stroke-linecap:round;stroke-linejoin:round;stroke-miterlimit:4;stroke-opacity:1;stroke-dasharray:none"
       id="path3767"
       sodipodi:cx="344.28571"
       sodipodi:cy="330.93362"
       sodipodi:rx="92.85714"
       sodipodi:ry="95.714287"
       d="m 437.14285,330.93362 a 92.85714,95.714287 0 1 1 -185.71428,0 92.85714,95.714287 0 1 1 185.71428,0 z"
       transform="matrix(0.22240932,0,0,0.15632202,165.64431,841.26717)" />
    <path
       style="fill:none;stroke:#000000;stroke-width:16.70178986;stroke-linecap:round;stroke-linejoin:miter;stroke-miterlimit:4;stroke-opacity:1;stroke-dasharray:none"
       d="m 225.55563,976.86475 c 0.86826,18.47335 0.6607,36.99715 -0.62128,55.44645 -0.0132,0.1902 -0.0265,0.3805 -0.04,0.5707"
       id="path4475"
       inkscape:path-effect="#path-effect4477"
       inkscape:original-d="m 225.55563,976.86475 -0.62128,55.44645 -0.04,0.5707"
       inkscape:connector-curvature="0" />
    <path
       style="fill:#e67310;fill-opacity:1;stroke:#000000;stroke-width:16.66427231;stroke-linecap:round;stroke-linejoin:miter;stroke-miterlimit:4;stroke-opacity:1;stroke-dasharray:none"
       d="m 251.88908,979.62901 -0.65654,52.23409 -0.0422,0.5376"
       id="path4475-4"
       inkscape:path-effect="#path-effect4477-6"
       inkscape:original-d="m 251.88908,979.62901 -0.65654,52.23409 -0.0422,0.5376"
       inkscape:connector-curvature="0" />
    <path
       style="fill:#ffffff;fill-opacity:1;fill-rule:evenodd;stroke:none"
       d="m 227.72175,896.02257 c 0.65651,-0.75878 1.9619,-0.8464 3.58133,-0.61639 1.61943,0.23001 3.5288,0.79319 5.42171,0.92239 1.30281,0.12935 2.76699,0.0691 4.35262,-0.151 0.0441,-0.006 0.0882,-0.0124 0.13229,-0.0187 1.8706,-0.25149 3.96008,-0.81752 6.06722,-1.15923 2.45992,-0.42407 4.73321,-0.52379 6.40568,-0.22495 1.67247,0.29883 2.727,0.97277 2.95759,1.90436 0.23059,0.93159 -0.35201,1.98771 -1.46991,3.11378 -1.1179,1.12606 -2.77418,2.35073 -4.96255,3.55796 -1.8627,1.05148 -4.29547,2.14154 -7.43225,2.68395 -0.0841,0.014 -0.16841,0.0273 -0.25302,0.04 -3.03932,0.45517 -6.09123,-0.0252 -8.57317,-1.11249 -1.57422,-0.74574 -2.8242,-1.63581 -3.79226,-2.53517 -0.96805,-0.89937 -1.65663,-1.80822 -2.11855,-2.64105 -0.92384,-1.66567 -0.97324,-3.00467 -0.31673,-3.76345 z"
       id="path4614"
       inkscape:path-effect="#path-effect4616"
       inkscape:original-d="m 227.72175,896.02257 c 11.26197,9.74402 17.15412,3.56846 28.91844,0.65649"
       inkscape:connector-curvature="0" />
    <path
       sodipodi:type="arc"
       style="opacity:0.93999999;fill:#ffffff;fill-opacity:1;stroke:#ffffff;stroke-width:5;stroke-linecap:round;stroke-linejoin:round;stroke-miterlimit:4;stroke-opacity:1;stroke-dasharray:none"
       id="path4658"
       sodipodi:cx="120"
       sodipodi:cy="743.79077"
       sodipodi:rx="18.571428"
       sodipodi:ry="14.285714"
       d="m 138.57143,743.79077 c 0,7.88978 -8.31471,14.28572 -18.57143,14.28572 -10.25672,0 -18.57143,-6.39594 -18.57143,-14.28572 0,-7.88978 8.31471,-14.28571 18.57143,-14.28571 10.25672,0 18.57143,6.39593 18.57143,14.28571 z"
       transform="matrix(0.37229743,0,0,0.20685733,-41.319222,820.30333)" />
    <path
       style="fill:none;stroke:#000000;stroke-width:16.70988464;stroke-linecap:round;stroke-linejoin:miter;stroke-miterlimit:4;stroke-opacity:1;stroke-dasharray:none"
       d="m 59.81926,976.11117 c 0.854061,18.72106 0.649069,37.49043 -0.61367,56.18833 -0.01302,0.1928 -0.02615,0.3856 -0.0394,0.5784"
       id="path4475-47"
       inkscape:path-effect="#path-effect4477-7"
       inkscape:original-d="m 59.81926,976.11117 -0.61367,56.18833 -0.0394,0.5784"
       inkscape:connector-curvature="0" />
    <path
       style="fill:none;stroke:#000000;stroke-width:16.71778679;stroke-linecap:round;stroke-linejoin:miter;stroke-miterlimit:4;stroke-opacity:1;stroke-dasharray:none"
       d="m 89.17566,975.35758 c 0.846575,18.96866 0.644091,37.98412 -0.60622,56.93042 -0.01289,0.1953 -0.02589,0.3906 -0.039,0.5859"
       id="path4475-4-6"
       inkscape:path-effect="#path-effect4477-6-4"
       inkscape:original-d="m 89.17566,975.35758 -0.60622,56.93042 -0.039,0.5859"
       inkscape:connector-curvature="0" />
    <path
       sodipodi:type="arc"
       style="opacity:0.93999999;fill:#000000;fill-opacity:1;stroke:#000000;stroke-width:25;stroke-linecap:round;stroke-linejoin:round;stroke-miterlimit:4;stroke-opacity:1;stroke-dasharray:none"
       id="path3767-2"
       sodipodi:cx="344.28571"
       sodipodi:cy="330.93362"
       sodipodi:rx="92.85714"
       sodipodi:ry="95.714287"
       d="m 437.14285,330.93362 a 92.85714,95.714287 0 1 1 -185.71428,0 92.85714,95.714287 0 1 1 185.71428,0 z"
       transform="matrix(0.22240932,0,0,0.15632202,0.78177,838.77333)" />
    <path
       style="fill:#ffffff;fill-opacity:1;fill-rule:evenodd;stroke:none"
       d="m 62.8592,893.52873 c 0.656506,-0.75878 1.961896,-0.8464 3.581325,-0.61639 1.619428,0.23001 3.528799,0.79319 5.421714,0.92239 1.302806,0.12936 2.766989,0.0691 4.352616,-0.151 0.04414,-0.006 0.08824,-0.0124 0.132292,-0.0187 1.870597,-0.25149 3.960086,-0.81752 6.067226,-1.15923 2.459912,-0.42407 4.733206,-0.52379 6.405678,-0.22495 1.672473,0.29883 2.726997,0.97277 2.957589,1.90436 0.230592,0.93159 -0.352013,1.98771 -1.469911,3.11378 -1.117898,1.12606 -2.774179,2.35073 -4.962553,3.55796 -1.862697,1.05148 -4.295465,2.14154 -7.432253,2.68395 -0.08406,0.014 -0.168404,0.0273 -0.253014,0.04 -3.03932,0.45518 -6.091229,-0.0251 -8.573171,-1.1125 -1.574219,-0.74573 -2.824201,-1.6358 -3.792257,-2.53516 -0.968057,-0.89937 -1.656629,-1.80822 -2.118549,-2.64105 -0.923842,-1.66567 -0.973238,-3.00467 -0.316732,-3.76345 z"
       id="path4614-3"
       inkscape:path-effect="#path-effect4616-4"
       inkscape:original-d="m 62.8592,893.52873 c 11.26196,9.74402 17.15412,3.56846 28.91844,0.65649"
       inkscape:connector-curvature="0" />
    <path
       style="fill:#000000;fill-opacity:1;stroke:#000000;stroke-width:0.20598319px;stroke-linecap:butt;stroke-linejoin:miter;stroke-opacity:1"
       d="m 217.92699,912.43662 40.98343,0 0,67.44072 -42.15438,0 c 0,0 2.34191,-134.88142 1.17095,-67.44072 z"
       id="path3761"
       inkscape:connector-curvature="0" />
    <path
       style="fill:#000000;fill-opacity:1;stroke:#000000;stroke-width:0.21549711999999999px;stroke-linecap:round;stroke-linejoin:miter;stroke-opacity:1"
       d="m 53.20937,913.14658 44.86307,0 0,67.4312 -46.14488,0 c 0,0 2.56361,-134.86239 1.28181,-67.4312 z"
       id="path3761-7"
       inkscape:connector-curvature="0" />
    <path
       style="fill:#ff0000;fill-opacity:1;stroke:#ff0000;stroke-width:1.60000002;stroke-linecap:butt;stroke-linejoin:miter;stroke-miterlimit:4;stroke-opacity:1;stroke-dasharray:none"
       d="m 0,1042.3622 300,0"
       id="path4499"
       inkscape:connector-curvature="0" />
    <path
       style="fill:none;stroke:#000000;stroke-width:12;stroke-linecap:round;stroke-linejoin:miter;stroke-miterlimit:4;stroke-opacity:1;stroke-dasharray:none"
       d="m 60,920.36218 -42,-1 1,-33"
       id="path3878"
       inkscape:connector-curvature="0" />
    <path
       style="fill:none;stroke:#000000;stroke-width:11.48594761;stroke-linecap:round;stroke-linejoin:miter;stroke-miterlimit:4;stroke-opacity:1;stroke-dasharray:none"
       d="m 92.742974,920.61921 41.514056,-0.92689 -0.98843,-30.58717"
       id="path3878-0"
       inkscape:connector-curvature="0" />
    <path
       sodipodi:type="arc"
       style="fill:#ff0000;fill-opacity:1;stroke:#ffffff;stroke-width:5;stroke-linecap:round;stroke-linejoin:round;stroke-miterlimit:4;stroke-opacity:1;stroke-dasharray:none"
       id="path4660-7-0"
       sodipodi:cx="109.28571"
       sodipodi:cy="836.64789"
       sodipodi:rx="39.285713"
       sodipodi:ry="34.285713"
       d="m 148.57143,836.64789 a 39.285713,34.285713 0 1 1 -78.57143,0 39.285713,34.285713 0 1 1 78.57143,0 z"
       transform="matrix(0.18963749,0,0,0.18688055,113.04949,730.02381)" />
    <path
       sodipodi:type="arc"
       style="fill:#ff0000;fill-opacity:1;stroke:#ffffff;stroke-width:5;stroke-linecap:round;stroke-linejoin:round;stroke-miterlimit:4;stroke-opacity:1;stroke-dasharray:none"
       id="path4660-4-0"
       sodipodi:cx="109.28571"
       sodipodi:cy="836.64789"
       sodipodi:rx="39.285713"
       sodipodi:ry="34.285713"
       d="m 148.57143,836.64789 a 39.285713,34.285713 0 1 1 -78.57143,0 39.285713,34.285713 0 1 1 78.57143,0 z"
       transform="matrix(0.19368601,0,0,0.15837383,-2.63466,753.86374)" />
    <path
       style="fill:#ec8c19;fill-opacity:1;stroke:#000000;stroke-width:13.66404152;stroke-linecap:round;stroke-linejoin:miter;stroke-miterlimit:4;stroke-opacity:1;stroke-dasharray:none"
       d="m 218.8519,923.85901 16.46746,-34.25006"
       id="path4425"
       inkscape:path-effect="#path-effect4427"
       inkscape:original-d="m 218.8519,923.85901 c 25.08818,-32.8738 16.67912,-34.11004 16.46746,-34.25006"
       inkscape:connector-curvature="0"
       sodipodi:nodetypes="cc" />
    <path
       style="fill:#000000;fill-opacity:1;stroke:#000000;stroke-width:14.18137836;stroke-linecap:round;stroke-linejoin:miter;stroke-miterlimit:4;stroke-opacity:1;stroke-dasharray:none"
       d="m 239.48737,884.75389 18.16493,36.73288"
       id="path4425-1"
       inkscape:path-effect="#path-effect4427-8"
       inkscape:original-d="m 239.48737,884.75389 c 19.28791,43.69484 15.18216,40.67329 18.16493,36.73288"
       inkscape:connector-curvature="0"
       sodipodi:nodetypes="cc" />
    <path
       sodipodi:type="arc"
       style="opacity:0.93999999;fill:#ff0000;fill-opacity:1;stroke:#ffffff;stroke-width:5;stroke-linecap:round;stroke-linejoin:round;stroke-miterlimit:4;stroke-opacity:1;stroke-dasharray:none"
       id="path4660-0"
       sodipodi:cx="109.28571"
       sodipodi:cy="836.64789"
       sodipodi:rx="39.285713"
       sodipodi:ry="34.285713"
       d="m 148.57143,836.64789 a 39.285713,34.285713 0 1 1 -78.57143,0 39.285713,34.285713 0 1 1 78.57143,0 z"
       transform="matrix(0.19043923,0,0,0.16201926,224.59138,751.52847)" />
    <path
       sodipodi:type="arc"
       style="opacity:0.93999999;fill:#ff0000;fill-opacity:1;stroke:#ffffff;stroke-width:5;stroke-linecap:round;stroke-linejoin:round;stroke-miterlimit:4;stroke-opacity:1;stroke-dasharray:none"
       id="path4660"
       sodipodi:cx="109.28571"
       sodipodi:cy="836.64789"
       sodipodi:rx="39.285713"
       sodipodi:ry="34.285713"
       d="m 148.57143,836.64789 a 39.285713,34.285713 0 1 1 -78.57143,0 39.285713,34.285713 0 1 1 78.57143,0 z"
       transform="matrix(0.18017684,0,0,0.19077161,209.75923,728.46273)" />
  </g>
</svg>
